<?xml version="1.0" encoding="UTF-8" standalone="no"?>
<svg
   xmlns:dc="http://purl.org/dc/elements/1.1/"
   xmlns:cc="http://creativecommons.org/ns#"
   xmlns:rdf="http://www.w3.org/1999/02/22-rdf-syntax-ns#"
   xmlns:svg="http://www.w3.org/2000/svg"
   xmlns="http://www.w3.org/2000/svg"
   id="svg1694"
   version="1.1"
   viewBox="0 0 26.458334 17.069891"
   height="17.069891mm"
   width="26.458334mm">
  <defs
     id="defs1688" />
  <metadata
     id="metadata1691">
    <rdf:RDF>
      <cc:Work
         rdf:about="">
        <dc:format>image/svg+xml</dc:format>
        <dc:type
           rdf:resource="http://purl.org/dc/dcmitype/StillImage" />
        <dc:title></dc:title>
      </cc:Work>
    </rdf:RDF>
  </metadata>
  <g
     transform="translate(86.936104,-165.66039)"
     id="layer1">
    <g
       transform="matrix(0.24300804,0,0,0.24300804,-184.96234,128.37335)"
       id="g1267">
      <path
         d="m 406.89903,220.17145 v 3.51222 h -3.51221 v -3.51222 z m -3e-5,-66.73192 v 3.51221 h -3.5122 v -3.51221 z m 0,3.51222 v 3.5122 h -3.5122 v -3.5122 z m 0,0 v 3.5122 h -3.5122 v -3.5122 z m 0,3.51218 v 3.51221 h -3.5122 v -3.51221 z m 0,3.51223 v 3.51221 h -3.5122 v -3.51221 z m 0,0 v 3.51221 h -3.5122 v -3.51221 z m 0,3.51217 v 3.51221 h -3.5122 v -3.51221 z m 0,3.51225 v 3.51221 h -3.5122 v -3.51221 z m 0,0 v 3.51221 h -3.5122 v -3.51221 z m 0,3.51221 v 3.51221 h -3.5122 v -3.51221 z m 0,3.51216 v 3.51221 h -3.5122 v -3.51221 z m 0,0 v 3.51221 h -3.5122 v -3.51221 z m 0,3.51222 v 3.51221 h -3.5122 v -3.51221 z m 0,3.51221 v 3.51223 h -3.5122 v -3.51223 z m 0,0 v 3.51223 h -3.5122 v -3.51223 z m 0,3.51221 v 3.51222 h -3.5122 v -3.51222 z m 0,3.5122 v 3.51221 h -3.5122 v -3.51221 z m 0,0 v 3.51221 h -3.5122 v -3.51221 z m 0,3.51221 v 3.5122 h -3.5122 v -3.5122 z m 0,3.51221 v 3.51222 h -3.5122 v -3.51222 z m 0,0 v 3.51222 h -3.5122 v -3.51222 z m 0,3.5122 v 3.51221 h -3.5122 v -3.51221 z m 0,3.51221 v 3.5122 h -3.5122 v -3.5122 z m 0,0 v 3.5122 h -3.5122 v -3.5122 z m 0,3.5122 v 3.5122 h -3.5122 v -3.5122 z m 0,3.51222 v 3.5122 h -3.5122 v -3.5122 z m 0,0 v 3.5122 h -3.5122 v -3.5122 z m 0,3.5122 v 3.5122 h -3.5122 v -3.5122 z m 105.36623,3.51221 v 3.51222 h -3.5122 v -3.51222 z m -2e-5,-66.73192 v 3.51221 H 508.753 v -3.51221 z m 0,3.51222 v 3.5122 H 508.753 v -3.5122 z m 0,0 v 3.5122 H 508.753 v -3.5122 z m 0,3.51218 v 3.51221 H 508.753 v -3.51221 z m 0,3.51223 v 3.51221 H 508.753 v -3.51221 z m 0,0 v 3.51221 H 508.753 v -3.51221 z m 0,3.51217 v 3.51221 H 508.753 v -3.51221 z m 0,3.51225 v 3.51221 H 508.753 v -3.51221 z m 0,0 v 3.51221 H 508.753 v -3.51221 z m 0,3.51221 V 178.025 H 508.753 v -3.51221 z m 0,3.51216 v 3.51221 H 508.753 v -3.51221 z m 0,0 v 3.51221 H 508.753 v -3.51221 z m 0,3.51222 v 3.51221 H 508.753 v -3.51221 z m 0,3.51221 v 3.51223 H 508.753 v -3.51223 z m 0,0 v 3.51223 H 508.753 v -3.51223 z m 0,3.51221 v 3.51222 H 508.753 v -3.51222 z m 0,3.5122 V 195.586 H 508.753 v -3.51221 z m 0,0 V 195.586 H 508.753 v -3.51221 z m 0,3.51221 v 3.5122 H 508.753 v -3.5122 z m 0,3.51221 v 3.51222 H 508.753 v -3.51222 z m 0,0 v 3.51222 H 508.753 v -3.51222 z m 0,3.5122 v 3.51221 H 508.753 v -3.51221 z m 0,3.51221 v 3.5122 H 508.753 v -3.5122 z m 0,0 v 3.5122 H 508.753 v -3.5122 z m 0,3.5122 v 3.5122 H 508.753 v -3.5122 z m 0,3.51222 v 3.5122 H 508.753 v -3.5122 z m 0,0 v 3.5122 H 508.753 v -3.5122 z m 0,3.5122 v 3.5122 H 508.753 v -3.5122 z m -7.02441,-63.21971 h 3.51222 v 3.51221 h -3.51222 z m -98.34177,1e-5 h 3.5122 v 3.51221 h -3.5122 z m 0,0 h 3.5122 v 3.51221 h -3.5122 z m 3.5122,0 h 3.5122 v 3.51221 h -3.5122 z m 3.51221,0 h 3.51221 v 3.51221 h -3.51221 z m 0,0 h 3.51221 v 3.51221 h -3.51221 z m 3.51221,0 h 3.5122 v 3.51221 h -3.5122 z m 3.5122,0 h 3.5122 v 3.51221 h -3.5122 z m 0,0 h 3.5122 v 3.51221 h -3.5122 z m 3.51219,0 h 3.51221 v 3.51221 h -3.51221 z m 3.51223,0 h 3.5122 v 3.51221 h -3.5122 z m 0,0 h 3.5122 v 3.51221 h -3.5122 z m 3.5122,0 h 3.5122 v 3.51221 h -3.5122 z m 3.5122,0 h 3.5122 v 3.51221 h -3.5122 z m 0,0 h 3.5122 v 3.51221 h -3.5122 z m 3.5122,0 h 3.51222 v 3.51221 h -3.51222 z m 3.51222,0 h 3.5122 v 3.51221 h -3.5122 z m 0,0 h 3.5122 v 3.51221 h -3.5122 z m 3.51219,0 h 3.5122 v 3.51221 h -3.5122 z m 3.51223,0 h 3.5122 v 3.51221 h -3.5122 z m 0,0 h 3.5122 v 3.51221 h -3.5122 z m 3.51217,0 h 3.5122 v 3.51221 h -3.5122 z m 3.51224,0 h 3.51223 v 3.51221 h -3.51223 z m 0,0 h 3.51223 v 3.51221 h -3.51223 z m 3.5122,0 h 3.51221 v 3.51221 h -3.51221 z m 3.51218,0 h 3.5122 v 3.51221 h -3.5122 z m 0,0 h 3.5122 v 3.51221 h -3.5122 z m 3.51222,0 h 3.5122 v 3.51221 h -3.5122 z m 3.51221,0 h 3.51222 v 3.51221 h -3.51222 z m 0,0 h 3.51222 v 3.51221 h -3.51222 z m 3.51221,0 h 3.51222 v 3.51221 h -3.51222 z m 3.5122,0 h 3.51221 v 3.51221 h -3.51221 z m 0,0 h 3.51221 v 3.51221 h -3.51221 z m 3.51221,0 h 3.5122 v 3.51221 h -3.5122 z m 3.51221,0 h 3.51222 v 3.51221 h -3.51222 z m 0,0 h 3.51222 v 3.51221 h -3.51222 z m 3.5122,0 h 3.51221 v 3.51221 h -3.51221 z m 3.51221,0 h 3.5122 v 3.51221 h -3.5122 z m 0,0 h 3.5122 v 3.51221 h -3.5122 z m 3.5122,0 h 3.5122 v 3.51221 h -3.5122 z m 3.51221,0 h 3.51221 v 3.51221 h -3.51221 z m 0,0 h 3.51221 v 3.51221 h -3.51221 z m 3.51221,0 h 3.5122 v 3.51221 h -3.5122 z m 3.51223,66.73191 h 3.51221 v 3.51221 h -3.51221 z m -98.34178,2e-5 h 3.5122 v 3.5122 h -3.5122 z m 0,0 h 3.5122 v 3.5122 h -3.5122 z m 3.5122,0 h 3.5122 v 3.5122 h -3.5122 z m 3.51221,0 h 3.51221 v 3.5122 h -3.51221 z m 0,0 h 3.51221 v 3.5122 h -3.51221 z m 3.51221,0 h 3.5122 v 3.5122 h -3.5122 z m 3.5122,0 h 3.5122 v 3.5122 h -3.5122 z m 0,0 h 3.5122 v 3.5122 h -3.5122 z m 3.51219,0 h 3.51222 v 3.5122 h -3.51222 z m 3.51224,0 h 3.51219 v 3.5122 h -3.51219 z m 0,0 h 3.51219 v 3.5122 h -3.51219 z m 3.51219,0 h 3.5122 v 3.5122 h -3.5122 z m 3.5122,0 h 3.51221 v 3.5122 h -3.51221 z m 0,0 h 3.51221 v 3.5122 h -3.51221 z m 3.51221,0 h 3.51222 v 3.5122 h -3.51222 z m 3.51222,0 h 3.51219 v 3.5122 h -3.51219 z m 0,0 h 3.51219 v 3.5122 h -3.51219 z m 3.51218,0 h 3.5122 v 3.5122 h -3.5122 z m 3.51224,0 h 3.5122 v 3.5122 h -3.5122 z m 0,0 h 3.5122 v 3.5122 h -3.5122 z m 3.51217,0 h 3.5122 v 3.5122 h -3.5122 z m 3.51224,0 h 3.51222 v 3.5122 h -3.51222 z m 0,0 h 3.51222 v 3.5122 h -3.51222 z m 3.51221,0 h 3.5122 v 3.5122 h -3.5122 z m 3.51217,0 h 3.5122 v 3.5122 h -3.5122 z m 0,0 h 3.5122 v 3.5122 h -3.5122 z m 3.51222,0 h 3.51219 v 3.5122 h -3.51219 z m 3.5122,0 h 3.51223 v 3.5122 h -3.51223 z m 0,0 h 3.51223 v 3.5122 h -3.51223 z m 3.51221,0 h 3.51222 v 3.5122 h -3.51222 z m 3.51221,0 h 3.5122 v 3.5122 h -3.5122 z m 0,0 h 3.5122 v 3.5122 h -3.5122 z m 3.5122,0 h 3.5122 v 3.5122 h -3.5122 z m 3.51221,0 h 3.51222 v 3.5122 h -3.51222 z m 0,0 h 3.51222 v 3.5122 h -3.51222 z m 3.51221,0 h 3.5122 v 3.5122 h -3.5122 z m 3.5122,0 h 3.5122 v 3.5122 h -3.5122 z m 0,0 h 3.5122 v 3.5122 h -3.5122 z m 3.5122,0 h 3.5122 v 3.5122 h -3.5122 z m 3.51222,0 h 3.5122 v 3.5122 h -3.5122 z m 0,0 h 3.5122 v 3.5122 h -3.5122 z m 3.5122,0 h 3.5122 v 3.5122 h -3.5122 z"
         style="opacity:1;fill:#ffffff;fill-opacity:1;stroke:none;stroke-width:2.80976558;stroke-linecap:round;stroke-miterlimit:4;stroke-dasharray:none;stroke-opacity:1"
         id="rect3463" />
      <path
         style="opacity:1;fill:#ffffff;fill-opacity:1;stroke:none;stroke-width:3.03881645;stroke-linecap:round;stroke-miterlimit:4;stroke-dasharray:none;stroke-opacity:1"
         d="m 414.14303,169.569 v 3.79851 3.79852 h 3.79852 v -3.79852 -3.79851 z m 3.79852,7.59703 v 3.79853 3.79851 h 3.79853 v -3.79851 -3.79853 z m 3.79853,7.59704 v 3.79853 h 3.79852 3.79852 3.79851 3.79852 v -3.79853 h -3.79852 -3.79851 -3.79852 z m 15.19407,0 h 3.79853 v -3.79851 -3.79853 h -3.79853 v 3.79853 z m 3.79853,-7.59704 h 3.79852 v -3.79852 -3.79851 h -3.79852 v 3.79851 z M 427.43785,169.569 v 3.79851 h 3.79853 V 169.569 Z m 20.89186,0 v 3.79851 3.79852 3.79853 h 3.79852 3.79853 v 3.79851 h -3.79853 -3.79852 v 3.79853 h 3.79852 v 3.79852 3.79851 3.79853 3.79853 3.79851 h 3.79853 v -3.79851 -3.79853 -3.79853 -3.79851 -3.79852 h 3.79851 v -3.79853 -3.79851 h 3.79853 v -3.79853 h -3.79853 v -3.79852 -3.79851 h -3.79851 -3.79853 z m 15.19409,11.39556 v 3.79851 h 3.79852 v -3.79851 z m 3.79852,3.79851 v 3.79853 h 3.79851 v -3.79853 z m 3.79851,0 h 3.79853 v -3.79851 h -3.79853 z m 3.79853,-3.79851 h 3.79852 v 3.79851 3.79853 h 3.79852 3.79852 3.79852 3.79852 v -3.79853 -3.79851 h 3.79853 3.79851 v -3.79853 -3.79852 -3.79851 h -3.79851 -3.79853 -3.79852 v 3.79851 3.79852 3.79853 3.79851 h -3.79852 -3.79852 v -3.79851 -3.79853 -3.79852 -3.79851 h -3.79852 v 3.79851 3.79852 h -3.79852 z M 463.5238,169.569 v 3.79851 h 3.79852 V 169.569 Z m 7.59703,0 v 3.79851 h 3.79853 V 169.569 Z m -18.9926,3.79851 h 3.79853 v 3.79852 h -3.79853 z m 41.78373,0 h 3.79853 v 3.79852 h -3.79853 z m -79.76893,18.99261 v 3.79851 3.79853 3.79853 3.79851 h 3.79852 v -3.79851 -3.79853 -3.79853 h 3.79853 v 3.79853 3.79853 3.79851 h 3.79852 v -3.79851 -3.79853 -3.79853 h 3.79852 v 3.79853 3.79853 3.79851 h 3.79851 v -3.79851 -3.79853 -3.79853 -3.79851 h -3.79851 -3.79852 -3.79852 -3.79853 z m 22.79112,0 v 3.79851 3.79853 3.79853 3.79851 h 3.79853 3.79852 3.79851 v -3.79851 -3.79853 -3.79853 -3.79851 h -3.79851 -3.79852 z m 22.79112,0 v 3.79851 3.79853 3.79853 3.79851 h 3.79853 3.79852 3.79851 v -3.79851 -3.79853 -3.79853 -3.79851 h -3.79851 -3.79852 z m 15.19409,0 v 3.79851 3.79853 3.79853 3.79851 h 3.79852 3.79852 3.79852 v -3.79851 -3.79853 -3.79853 -3.79851 h -3.79852 -3.79852 z m 15.19408,0 v 3.79851 3.79853 3.79853 3.79851 h 3.79852 v -3.79851 -3.79853 -3.79853 h 3.79853 v 3.79853 3.79853 3.79851 h 3.79851 v -3.79851 -3.79853 -3.79853 -3.79851 h -3.79851 -3.79853 z m -49.38076,3.79851 h 3.79852 v 3.79853 3.79853 h -3.79852 v -3.79853 z m 22.79112,0 h 3.79852 v 3.79853 3.79853 h -3.79852 v -3.79853 z m 15.19408,0 h 3.79852 v 3.79853 3.79853 h -3.79852 v -3.79853 z"
         id="path1247" />
    </g>
  </g>
</svg>
